<svg version="1.1" id="Layer_1" xmlns="http://www.w3.org/2000/svg" xmlns:xlink="http://www.w3.org/1999/xlink" x="0px" y="0px"
	 width="100%" viewBox="0 0 500 500" enable-background="new 0 0 500 500" xml:space="preserve">
<path fill="#FFFEFE" opacity="1.000000" stroke="none" 
	d="
M252.000000,1.000000 
	C334.981567,1.000000 417.963165,1.000000 500.972351,1.000000 
	C500.972351,167.611267 500.972351,334.222534 500.972351,500.916901 
	C334.425751,500.916901 167.851456,500.916901 1.138582,500.916901 
	C1.138582,334.333405 1.138582,167.666718 1.138582,1.000000 
	C66.430489,1.000000 131.749207,1.000000 197.337982,1.378694 
	C176.212875,2.715040 154.820160,3.733574 133.420975,4.590177 
	C127.624649,4.822202 121.808723,4.564527 115.546600,4.412848 
	C105.393188,4.251559 95.694984,4.209040 85.533417,4.093027 
	C77.713364,4.022782 70.356667,4.026031 62.541656,3.928416 
	C56.723789,3.829280 51.364227,3.831009 45.610214,3.701109 
	C38.471813,3.510647 31.727861,3.451814 24.525772,3.295918 
	C17.332882,3.198856 10.598129,3.198856 3.935427,3.198856 
	C3.935427,7.412949 3.935427,11.205276 3.825083,15.455526 
	C3.788120,24.275047 3.861500,32.636646 3.823884,41.455982 
	C3.787295,51.274998 3.861701,60.636272 3.824742,70.455231 
	C3.787008,81.274376 3.860641,91.635841 3.821476,102.454681 
	C3.708678,115.486343 3.708678,128.060623 3.708678,140.858231 
	C17.121641,140.858231 30.059128,140.858231 43.190308,140.952881 
	C43.383999,141.047531 43.814770,141.066025 43.862911,141.528168 
	C43.978237,152.327774 44.045422,162.665268 44.029587,173.464767 
	C44.001862,184.285522 44.057163,194.644257 44.029491,205.464996 
	C44.001804,216.285660 44.057087,226.644318 44.028393,237.464813 
	C43.944412,315.848633 43.944412,393.770630 43.944412,472.345215 
	C69.053619,475.695587 93.713173,479.492004 118.492805,482.182434 
	C164.075043,487.131561 209.841461,489.114868 255.669174,487.413330 
	C267.830353,486.961823 279.896973,483.963776 292.412628,482.198395 
	C301.211487,479.477386 309.604736,476.692993 318.362152,473.905396 
	C325.148254,470.872833 331.570251,467.843475 338.333618,464.771912 
	C344.446350,461.050598 350.217743,457.371429 356.297180,453.592407 
	C362.791962,448.113617 368.978668,442.734711 375.476135,437.210175 
	C382.311066,428.757751 388.835236,420.450928 395.625244,411.941040 
	C400.851074,400.160797 405.811005,388.583679 410.924896,376.644775 
	C412.710358,364.189209 414.341858,352.095459 416.085876,339.544128 
	C415.112152,326.392029 414.025940,313.697479 412.985931,300.596191 
	C408.549042,276.171326 399.152008,254.441635 382.756897,236.084976 
	C380.428986,233.478516 380.702637,231.705948 382.117249,228.795746 
	C386.389923,220.005737 391.044037,211.258194 394.007904,202.000549 
	C404.856049,168.116196 404.477753,133.723495 395.716583,99.567871 
	C388.170319,70.148514 371.804291,46.455147 346.171722,29.504389 
	C324.181274,14.962169 299.602448,7.911014 273.890869,4.026042 
	C266.607788,2.925584 259.297699,2.003754 252.000000,1.000000 
z"/>
<path fill="#FF1C44" opacity="1.000000" stroke="none" 
	d="
M116.001801,4.531619 
	C121.808723,4.564527 127.624649,4.822202 133.420975,4.590177 
	C154.820160,3.733574 176.212875,2.715040 197.804016,1.378694 
	C215.687561,1.000000 233.375122,1.000000 251.531342,1.000000 
	C259.297699,2.003754 266.607788,2.925584 273.890869,4.026042 
	C299.602448,7.911014 324.181274,14.962169 346.171722,29.504389 
	C371.804291,46.455147 388.170319,70.148514 395.716583,99.567871 
	C404.477753,133.723495 404.856049,168.116196 394.007904,202.000549 
	C391.044037,211.258194 386.389923,220.005737 382.117249,228.795746 
	C380.702637,231.705948 380.428986,233.478516 382.756897,236.084976 
	C399.152008,254.441635 408.549042,276.171326 412.624695,300.590759 
	C410.485077,299.834900 408.505890,298.925751 407.057526,297.483551 
	C382.822693,273.352051 358.647461,249.160736 334.488525,224.953186 
	C333.100861,223.562729 331.966766,221.919250 330.873718,220.120743 
	C338.669769,212.213425 344.470276,203.373489 348.180145,193.231461 
	C357.628937,167.400452 357.665527,141.035645 351.453857,114.656372 
	C345.154755,87.905785 328.863403,69.325089 303.313446,58.846642 
	C287.569427,52.389786 271.063751,49.931450 254.283783,48.439907 
	C231.826813,46.443748 209.413300,47.010067 186.577301,48.945507 
	C184.442734,49.029999 182.732773,49.190994 180.605499,49.283806 
	C178.811417,49.406452 177.434647,49.597286 175.715576,49.663227 
	C173.915848,49.705219 172.458435,49.872101 170.586075,49.977432 
	C168.785263,50.056084 167.399414,50.196281 165.654968,50.271484 
	C163.860718,50.417339 162.425049,50.628197 160.591827,50.775139 
	C159.127792,50.668129 158.061279,50.625034 156.994354,50.226036 
	C155.995911,48.080002 155.333221,45.959808 153.947128,44.551697 
	C142.347870,32.768177 130.584625,21.146183 118.967125,9.380396 
	C117.671112,8.067833 116.975731,6.162206 116.001801,4.531619 
z"/>
<path fill="#BE0101" opacity="1.000000" stroke="none" 
	d="
M292.007019,482.135010 
	C279.896973,483.963776 267.830353,486.961823 255.669174,487.413330 
	C209.841461,489.114868 164.075043,487.131561 118.492805,482.182434 
	C93.713173,479.492004 69.053619,475.695587 43.944412,472.345215 
	C43.944412,393.770630 43.944412,315.848633 44.373146,237.503418 
	C46.812222,238.497818 49.066147,239.668625 50.793522,241.373047 
	C62.298878,252.725388 73.669029,264.214630 85.151093,275.590820 
	C86.513878,276.941040 88.288574,277.875549 89.953369,279.465088 
	C90.034416,330.529694 90.034416,381.131958 90.034416,431.845978 
	C91.381081,432.197937 92.470383,432.655426 93.590385,432.750214 
	C126.404602,435.527557 159.188507,438.815979 192.050613,440.819733 
	C213.287643,442.114624 234.639893,441.519989 255.981995,442.138702 
	C257.375580,444.529968 258.450592,446.826294 260.125519,448.534393 
	C269.615784,458.212280 279.281281,467.718231 288.798309,477.370270 
	C290.119598,478.710327 290.949585,480.534821 292.007019,482.135010 
z"/>
<path fill="#F8193D" opacity="1.000000" stroke="none" 
	d="
M330.714600,220.393524 
	C331.966766,221.919250 333.100861,223.562729 334.488525,224.953186 
	C358.647461,249.160736 382.822693,273.352051 407.057526,297.483551 
	C408.505890,298.925751 410.485077,299.834900 412.578491,300.997498 
	C414.025940,313.697479 415.112152,326.392029 415.743164,339.508423 
	C413.882080,338.810120 412.354980,337.811737 411.088959,336.551147 
	C397.205994,322.727753 383.417114,308.809052 369.436676,295.085358 
	C367.849701,293.527496 365.247681,293.003723 362.904053,291.709106 
	C351.648560,262.511993 329.574799,246.556244 301.917328,239.154831 
	C311.117310,233.161087 320.915955,226.777298 330.714600,220.393524 
z"/>
<path fill="#D70A1A" opacity="1.000000" stroke="none" 
	d="
M43.814770,141.066025 
	C43.814770,141.066025 43.383999,141.047531 43.150768,140.617859 
	C42.595066,139.616959 42.380558,138.938187 41.934357,138.490158 
	C30.414557,126.923340 18.887419,115.363602 7.297318,103.867401 
	C6.420581,102.997765 5.066476,102.609398 3.934273,101.997314 
	C3.860641,91.635841 3.787008,81.274376 4.173858,70.487175 
	C6.169802,71.287865 7.838367,72.380890 9.220971,73.760490 
	C34.207485,98.692673 59.138828,123.680222 84.169456,148.567947 
	C85.697891,150.087631 87.954430,150.875061 89.951485,152.465775 
	C89.977913,163.286560 89.925056,173.644745 89.536148,183.961533 
	C87.801132,182.781128 86.292511,181.752304 85.020241,180.486023 
	C72.879021,168.402039 60.804649,156.250732 48.626919,144.203827 
	C47.293293,142.884537 45.431561,142.099075 43.814770,141.066025 
z"/>
<path fill="#DD0D20" opacity="1.000000" stroke="none" 
	d="
M89.872192,152.003189 
	C87.954430,150.875061 85.697891,150.087631 84.169456,148.567947 
	C59.138828,123.680222 34.207485,98.692673 9.220971,73.760490 
	C7.838367,72.380890 6.169802,71.287865 4.285224,70.029495 
	C3.861701,60.636272 3.787295,51.274998 4.193545,41.460083 
	C6.298763,42.020283 8.178951,42.775417 9.507847,44.088486 
	C21.186333,55.627876 32.729435,67.304390 44.424160,78.827095 
	C45.846878,80.228874 47.928886,80.961525 49.788918,82.462509 
	C49.872482,86.814873 49.872482,90.708992 49.872482,95.059853 
	C54.433586,95.059853 58.216171,95.059853 62.035820,95.400360 
	C70.859077,104.713852 79.639839,113.692177 88.455109,122.636505 
	C88.748787,122.934479 89.391594,122.888359 89.950851,123.465218 
	C89.977425,133.286270 89.924805,142.644730 89.872192,152.003189 
z"/>
<path fill="#F11636" opacity="1.000000" stroke="none" 
	d="
M363.116302,292.000458 
	C365.247681,293.003723 367.849701,293.527496 369.436676,295.085358 
	C383.417114,308.809052 397.205994,322.727753 411.088959,336.551147 
	C412.354980,337.811737 413.882080,338.810120 415.630676,339.965942 
	C414.341858,352.095459 412.710358,364.189209 410.588257,376.599731 
	C408.223419,375.602386 406.120819,374.520233 404.512177,372.936401 
	C394.700897,363.275940 385.042603,353.459900 375.216339,343.814911 
	C373.910767,342.533417 371.941895,341.927734 370.199463,340.546783 
	C370.287201,323.692047 368.259003,307.619476 363.116302,292.000458 
z"/>
<path fill="#E8122C" opacity="1.000000" stroke="none" 
	d="
M370.280212,341.009064 
	C371.941895,341.927734 373.910767,342.533417 375.216339,343.814911 
	C385.042603,353.459900 394.700897,363.275940 404.512177,372.936401 
	C406.120819,374.520233 408.223419,375.602386 410.434326,376.961487 
	C405.811005,388.583679 400.851074,400.160797 395.293823,411.804199 
	C385.606232,402.888824 376.570251,393.850800 367.376892,384.975861 
	C365.660767,383.319214 363.313202,382.316650 361.303223,380.662231 
	C367.094513,367.840210 369.462219,354.600708 370.280212,341.009064 
z"/>
<path fill="#C50307" opacity="1.000000" stroke="none" 
	d="
M89.872330,279.002747 
	C88.288574,277.875549 86.513878,276.941040 85.151093,275.590820 
	C73.669029,264.214630 62.298878,252.725388 50.793522,241.373047 
	C49.066147,239.668625 46.812222,238.497818 44.457123,237.041565 
	C44.057087,226.644318 44.001804,216.285660 44.387497,205.468964 
	C46.435612,206.057266 48.277805,206.865997 49.613129,208.187088 
	C61.508270,219.955276 73.292068,231.835968 85.175865,243.615707 
	C86.530136,244.958145 88.297180,245.884155 89.953049,247.465668 
	C89.979622,258.286316 89.925972,268.644531 89.872330,279.002747 
z"/>
<path fill="#CB060E" opacity="1.000000" stroke="none" 
	d="
M89.872833,247.003250 
	C88.297180,245.884155 86.530136,244.958145 85.175865,243.615707 
	C73.292068,231.835968 61.508270,219.955276 49.613129,208.187088 
	C48.277805,206.865997 46.435612,206.057266 44.470470,205.006958 
	C44.057163,194.644257 44.001862,184.285522 44.387573,173.468811 
	C46.435669,174.057190 48.277767,174.866013 49.613087,176.187088 
	C61.507973,187.955017 73.291534,199.835419 85.175026,211.614960 
	C86.529320,212.957397 88.296097,213.883698 89.951614,215.465424 
	C89.978691,226.286362 89.925766,236.644806 89.872833,247.003250 
z"/>
<path fill="#D10814" opacity="1.000000" stroke="none" 
	d="
M89.871613,215.002945 
	C88.296097,213.883698 86.529320,212.957397 85.175026,211.614960 
	C73.291534,199.835419 61.507973,187.955017 49.613087,176.187088 
	C48.277767,174.866013 46.435669,174.057190 44.470596,173.006790 
	C44.045422,162.665268 43.978237,152.327774 43.862911,141.528168 
	C45.431561,142.099075 47.293293,142.884537 48.626919,144.203827 
	C60.804649,156.250732 72.879021,168.402039 85.020241,180.486023 
	C86.292511,181.752304 87.801132,182.781128 89.615746,184.424088 
	C89.978134,194.953018 89.924881,204.977982 89.871613,215.002945 
z"/>
<path fill="#DE0E22" opacity="1.000000" stroke="none" 
	d="
M361.257050,381.012238 
	C363.313202,382.316650 365.660767,383.319214 367.376892,384.975861 
	C376.570251,393.850800 385.606232,402.888824 395.027985,412.007294 
	C388.835236,420.450928 382.311066,428.757751 375.331055,436.881836 
	C373.645233,435.361176 372.460266,433.978363 371.178009,432.692535 
	C362.308319,423.798218 353.418365,414.924133 344.680420,405.770325 
	C350.302948,397.335480 355.779999,389.173859 361.257050,381.012238 
z"/>
<path fill="#F8193D" opacity="1.000000" stroke="none" 
	d="
M115.546600,4.412848 
	C116.975731,6.162206 117.671112,8.067833 118.967125,9.380396 
	C130.584625,21.146183 142.347870,32.768177 153.947128,44.551697 
	C155.333221,45.959808 155.995911,48.080002 156.750610,50.353374 
	C156.338654,50.908314 156.170013,50.980015 155.574432,50.971481 
	C153.415817,50.967232 151.684143,51.043213 149.490448,51.058098 
	C142.017593,50.858158 135.006744,50.719322 127.986557,50.241356 
	C126.872459,48.322456 125.968407,46.543903 124.631447,45.194149 
	C113.199699,33.652920 101.639008,22.238997 90.255264,10.651046 
	C88.477554,8.841441 87.398758,6.345234 85.996773,4.166521 
	C95.694984,4.209040 105.393188,4.251559 115.546600,4.412848 
z"/>
<path fill="#C60409" opacity="1.000000" stroke="none" 
	d="
M292.412628,482.198395 
	C290.949585,480.534821 290.119598,478.710327 288.798309,477.370270 
	C279.281281,467.718231 269.615784,458.212280 260.125519,448.534393 
	C258.450592,446.826294 257.375580,444.529968 256.332611,441.941650 
	C260.154907,440.999939 263.668060,440.621857 267.582520,440.216949 
	C270.327362,439.772461 272.670929,439.354797 275.382080,438.984283 
	C277.170258,438.701721 278.590851,438.371979 280.382935,438.079193 
	C282.172272,437.745453 283.590088,437.374756 285.406860,437.031982 
	C286.865387,436.940979 287.924988,436.822083 288.837799,437.018921 
	C285.709930,439.586700 287.698700,441.205048 289.383026,442.887451 
	C297.933746,451.428345 306.531433,459.923645 314.967773,468.576202 
	C316.348480,469.992279 317.006134,472.113403 317.998016,473.908630 
	C309.604736,476.692993 301.211487,479.477386 292.412628,482.198395 
z"/>
<path fill="#E7112B" opacity="1.000000" stroke="none" 
	d="
M3.935427,14.997604 
	C3.935427,11.205276 3.935427,7.412949 3.935427,3.198856 
	C10.598129,3.198856 17.332882,3.198856 24.535826,3.640955 
	C26.386419,6.272352 27.433376,8.790786 29.205898,10.597305 
	C40.360252,21.965588 51.716404,33.135765 62.886890,44.488472 
	C64.281601,45.905933 64.975998,48.012466 65.531998,49.868408 
	C60.051868,49.937103 55.034641,49.937103 50.087421,49.937103 
	C49.932384,52.402920 49.819168,54.203674 49.358849,55.998482 
	C47.422878,54.910084 45.622387,54.041485 44.278442,52.711533 
	C32.983490,41.534164 21.827288,30.216045 10.478989,19.093679 
	C8.683927,17.334352 6.135524,16.343668 3.935427,14.997604 
z"/>
<path fill="#E20F26" opacity="1.000000" stroke="none" 
	d="
M3.825083,15.455526 
	C6.135524,16.343668 8.683927,17.334352 10.478989,19.093679 
	C21.827288,30.216045 32.983490,41.534164 44.278442,52.711533 
	C45.622387,54.041485 47.422878,54.910084 49.442360,56.460190 
	C49.817101,65.286659 49.761227,73.645470 49.705349,82.004280 
	C47.928886,80.961525 45.846878,80.228874 44.424160,78.827095 
	C32.729435,67.304390 21.186333,55.627876 9.507847,44.088486 
	C8.178951,42.775417 6.298763,42.020283 4.304542,41.002342 
	C3.861500,32.636646 3.788120,24.275047 3.825083,15.455526 
z"/>
<path fill="#D70B1A" opacity="1.000000" stroke="none" 
	d="
M344.534943,406.043518 
	C353.418365,414.924133 362.308319,423.798218 371.178009,432.692535 
	C372.460266,433.978363 373.645233,435.361176 375.020325,437.027435 
	C368.978668,442.734711 362.791962,448.113617 356.247925,453.261841 
	C354.567261,451.160828 353.463959,449.075623 351.882812,447.457153 
	C344.690125,440.094238 337.320770,432.904053 330.122406,425.546570 
	C328.797424,424.192291 327.969421,422.351776 327.079285,420.452789 
	C333.009338,415.461121 338.772156,410.752319 344.534943,406.043518 
z"/>
<path fill="#F31637" opacity="1.000000" stroke="none" 
	d="
M85.533417,4.093026 
	C87.398758,6.345234 88.477554,8.841441 90.255264,10.651046 
	C101.639008,22.238997 113.199699,33.652920 124.631447,45.194149 
	C125.968407,46.543903 126.872459,48.322456 127.527374,50.329292 
	C119.718521,50.536045 112.359505,50.315731 104.996948,49.724266 
	C103.981117,47.720913 103.231682,45.828926 101.915443,44.497093 
	C90.102364,32.544064 78.166084,20.712839 66.338631,8.773869 
	C64.996681,7.419265 64.102028,5.621534 62.999966,4.029281 
	C70.356667,4.026031 77.713364,4.022782 85.533417,4.093026 
z"/>
<path fill="#EC1531" opacity="1.000000" stroke="none" 
	d="
M65.994888,49.799713 
	C64.975998,48.012466 64.281601,45.905933 62.886890,44.488472 
	C51.716404,33.135765 40.360252,21.965588 29.205898,10.597305 
	C27.433376,8.790786 26.386419,6.272352 24.993961,3.738017 
	C31.727861,3.451814 38.471813,3.510647 45.612003,4.078346 
	C47.006939,6.225997 47.734138,8.133004 49.046757,9.461658 
	C60.861904,21.421133 72.802795,33.256313 84.635826,45.198292 
	C85.980431,46.555271 86.888474,48.344822 87.536964,50.018181 
	C80.048286,50.001614 73.021584,49.900661 65.994888,49.799713 
z"/>
<path fill="#D10915" opacity="1.000000" stroke="none" 
	d="
M326.912018,420.735687 
	C327.969421,422.351776 328.797424,424.192291 330.122406,425.546570 
	C337.320770,432.904053 344.690125,440.094238 351.882812,447.457153 
	C353.463959,449.075623 354.567261,451.160828 355.939850,453.361694 
	C350.217743,457.371429 344.446350,461.050598 338.290894,464.440277 
	C336.768463,462.764435 335.732971,461.276001 334.475128,460.008179 
	C326.326233,451.794342 318.098907,443.658081 309.979767,435.415161 
	C308.764557,434.181335 307.982056,432.521271 307.273926,430.835754 
	C314.002991,427.320618 320.457520,424.028137 326.912018,420.735687 
z"/>
<path fill="#CB060E" opacity="1.000000" stroke="none" 
	d="
M306.999359,431.058411 
	C307.982056,432.521271 308.764557,434.181335 309.979767,435.415161 
	C318.098907,443.658081 326.326233,451.794342 334.475128,460.008179 
	C335.732971,461.276001 336.768463,462.764435 337.949524,464.482483 
	C331.570251,467.843475 325.148254,470.872833 318.362152,473.905426 
	C317.006134,472.113403 316.348480,469.992279 314.967773,468.576202 
	C306.531433,459.923645 297.933746,451.428345 289.383026,442.887451 
	C287.698700,441.205048 285.709930,439.586700 288.906006,437.026428 
	C289.120972,436.718109 289.257080,436.736481 289.638672,436.801361 
	C290.680511,436.583008 291.340790,436.299805 292.279694,435.820984 
	C293.801331,435.139191 295.044342,434.652985 296.591766,434.178375 
	C297.625916,433.903015 298.355621,433.616028 299.445007,433.277405 
	C301.549957,432.535248 303.295227,431.844788 305.368866,431.147827 
	C306.131287,431.113708 306.565338,431.086060 306.999359,431.058411 
z"/>
<path fill="#F11636" opacity="1.000000" stroke="none" 
	d="
M87.998947,49.933796 
	C86.888474,48.344822 85.980431,46.555271 84.635826,45.198292 
	C72.802795,33.256313 60.861904,21.421133 49.046757,9.461658 
	C47.734138,8.133004 47.006939,6.225997 46.006454,4.209975 
	C51.364227,3.831009 56.723789,3.829280 62.541656,3.928416 
	C64.102028,5.621534 64.996681,7.419265 66.338631,8.773869 
	C78.166084,20.712839 90.102364,32.544064 101.915443,44.497093 
	C103.231682,45.828926 103.981117,47.720913 104.538803,49.828552 
	C98.722435,50.180584 93.360695,50.057190 87.998947,49.933796 
z"/>
<path fill="#D10814" opacity="1.000000" stroke="none" 
	d="
M3.821476,102.454681 
	C5.066476,102.609398 6.420581,102.997765 7.297318,103.867401 
	C18.887419,115.363602 30.414557,126.923340 41.934357,138.490158 
	C42.380558,138.938187 42.595066,139.616959 42.957077,140.523224 
	C30.059128,140.858231 17.121641,140.858231 3.708678,140.858231 
	C3.708678,128.060623 3.708678,115.486343 3.821476,102.454681 
z"/>
<path fill="#FFFEFE" opacity="1.000000" stroke="none" 
	d="
M307.273926,430.835754 
	C306.565338,431.086060 306.131287,431.113708 305.356201,430.669128 
	C305.009277,408.697449 305.053131,387.197693 304.911621,365.699158 
	C304.899109,363.795471 303.677734,361.899750 303.048096,359.628448 
	C304.089874,355.518555 305.101410,351.780579 306.465759,347.908752 
	C307.604401,342.533325 308.390198,337.291718 309.338745,331.738342 
	C308.656830,324.618073 307.812134,317.809570 307.006042,310.603302 
	C301.757416,286.926270 286.652740,273.737488 263.604218,268.184021 
	C256.145233,267.058197 249.072464,266.064972 241.547379,264.957520 
	C235.395660,264.618195 229.696259,264.393127 223.533386,264.095825 
	C214.712250,264.071472 206.354568,264.119354 197.543884,264.095703 
	C193.730515,263.960846 190.370178,263.897583 187.006714,263.376404 
	C187.006134,248.668365 187.008682,234.418289 187.473816,220.098236 
	C193.623383,219.963348 199.310364,219.898438 205.459854,219.908066 
	C211.281281,219.933029 216.640198,219.883438 222.457642,219.906845 
	C226.944977,219.847702 230.973801,219.715561 235.406403,219.658936 
	C239.873276,219.143234 243.936340,218.552017 248.409485,218.002899 
	C253.557938,216.734421 258.296295,215.423859 263.409546,214.098541 
	C268.876160,211.105972 273.967896,208.128174 279.384033,205.031174 
	C282.747955,200.941116 285.787476,196.970261 289.072021,192.726196 
	C290.872620,188.140427 292.428131,183.827881 294.221924,179.248779 
	C298.452911,163.367508 298.118500,147.644714 294.721161,132.070847 
	C290.498688,112.714531 278.711761,99.940575 259.424500,94.746384 
	C241.900696,90.027100 223.962433,90.065735 205.536972,90.883865 
	C199.048309,90.887016 193.023010,90.965027 186.998428,90.571686 
	C187.000076,76.407562 187.000992,62.714787 187.001907,49.022011 
	C209.413300,47.010067 231.826813,46.443748 254.283783,48.439907 
	C271.063751,49.931450 287.569427,52.389786 303.313446,58.846642 
	C328.863403,69.325089 345.154755,87.905785 351.453857,114.656372 
	C357.665527,141.035645 357.628937,167.400452 348.180145,193.231461 
	C344.470276,203.373489 338.669769,212.213425 330.873718,220.120728 
	C320.915955,226.777298 311.117310,233.161087 301.917328,239.154831 
	C329.574799,246.556244 351.648560,262.511993 362.904053,291.709106 
	C368.259003,307.619476 370.287201,323.692047 370.199463,340.546783 
	C369.462219,354.600708 367.094513,367.840210 361.303223,380.662231 
	C355.779999,389.173859 350.302948,397.335480 344.680420,405.770325 
	C338.772156,410.752319 333.009338,415.461121 327.079285,420.452789 
	C320.457520,424.028137 314.002991,427.320618 307.273926,430.835754 
z"/>
<path fill="#F4F4F4" opacity="1.000000" stroke="none" 
	d="
M186.577301,48.945507 
	C187.000992,62.714787 187.000076,76.407562 186.594559,90.703278 
	C184.499298,91.383537 182.808655,91.460846 181.086151,91.036667 
	C181.043823,76.807449 181.033310,63.079720 181.022797,49.351990 
	C182.732773,49.190994 184.442734,49.029999 186.577301,48.945507 
z"/>
<path fill="#EAEAEA" opacity="1.000000" stroke="none" 
	d="
M180.605499,49.283806 
	C181.033310,63.079720 181.043823,76.807449 180.742401,91.158310 
	C178.957535,91.790848 177.484573,91.800270 176.008087,91.352974 
	C176.022339,77.193542 176.040100,63.490826 176.057877,49.788116 
	C177.434647,49.597286 178.811417,49.406452 180.605499,49.283806 
z"/>
<path fill="#CFCECE" opacity="1.000000" stroke="none" 
	d="
M160.989365,50.839054 
	C162.425049,50.628197 163.860718,50.417339 165.653046,50.716881 
	C166.018448,64.878883 166.027222,78.530487 165.725449,92.369354 
	C163.946716,92.596329 162.478516,92.636040 161.008835,92.227425 
	C161.001343,78.132416 160.995361,64.485733 160.989365,50.839054 
z"/>
<path fill="#DFDEDE" opacity="1.000000" stroke="none" 
	d="
M175.715576,49.663223 
	C176.040100,63.490826 176.022339,77.193542 175.755341,91.449982 
	C175.335754,92.063309 175.165405,92.122910 174.597839,92.124710 
	C173.133881,92.024338 172.067123,91.981758 170.999832,91.474335 
	C170.999863,77.352654 171.000443,63.695820 171.001022,50.038986 
	C172.458435,49.872101 173.915848,49.705219 175.715576,49.663223 
z"/>
<path fill="#C6C6C6" opacity="1.000000" stroke="none" 
	d="
M160.591827,50.775139 
	C160.995361,64.485733 161.001343,78.132416 160.602112,92.332596 
	C158.800095,92.885277 157.403290,92.884453 156.004318,92.422272 
	C156.001892,78.324516 156.001617,64.688110 156.001358,51.051712 
	C156.170013,50.980015 156.338654,50.908314 156.751038,50.709282 
	C158.061279,50.625034 159.127792,50.668129 160.591827,50.775139 
z"/>
<path fill="#D8D8D8" opacity="1.000000" stroke="none" 
	d="
M170.586075,49.977432 
	C171.000443,63.695820 170.999863,77.352654 170.595459,91.575844 
	C168.806427,92.155495 167.421204,92.168793 166.035995,92.182098 
	C166.027222,78.530487 166.018448,64.878883 166.011612,50.781883 
	C167.399414,50.196281 168.785263,50.056084 170.586075,49.977432 
z"/>
<path fill="#FFFEFE" opacity="1.000000" stroke="none" 
	d="
M87.536964,50.018181 
	C93.360695,50.057190 98.722435,50.180584 104.542336,50.199696 
	C112.359505,50.315731 119.718521,50.536045 127.536728,50.668427 
	C135.006744,50.719322 142.017593,50.858158 149.504745,51.518448 
	C150.059448,65.813713 150.137817,79.587540 150.141708,93.764862 
	C150.095612,96.113319 150.124008,98.058273 150.078445,100.466293 
	C150.049622,107.286987 150.094742,113.644615 150.062408,120.461189 
	C150.033752,125.280861 150.082535,129.641586 150.052612,134.461090 
	C150.022842,139.280228 150.071777,143.640594 150.039383,148.462357 
	C150.008575,154.283203 150.059097,159.642654 150.027313,165.464325 
	C149.994217,173.618347 150.043442,181.310120 150.006592,189.463593 
	C149.954529,199.938843 149.988525,209.952408 149.986023,220.435699 
	C149.967133,235.272842 149.984726,249.640274 149.908707,264.463867 
	C149.879822,269.280151 149.944534,273.640228 149.907837,278.459534 
	C149.863007,287.945679 149.919601,296.972626 149.867065,306.457397 
	C149.815186,317.609314 149.872452,328.303375 149.813721,339.454041 
	C149.697739,357.798553 149.697739,375.686432 149.697739,393.708862 
	C154.221680,394.368530 158.287582,395.246735 162.392868,395.509277 
	C177.923462,396.502472 193.466812,397.295959 209.390076,398.308228 
	C220.515656,398.266144 231.256592,398.080048 242.443329,397.969238 
	C250.918091,396.875702 258.947021,395.706818 266.958893,394.972687 
	C267.021637,410.352875 267.101440,425.298309 267.181244,440.243774 
	C263.668060,440.621857 260.154907,440.999939 256.291107,441.575073 
	C234.639893,441.519989 213.287643,442.114624 192.050613,440.819733 
	C159.188507,438.815979 126.404602,435.527557 93.590385,432.750214 
	C92.470383,432.655426 91.381081,432.197937 90.034416,431.845978 
	C90.034416,381.131958 90.034416,330.529694 89.953369,279.465088 
	C89.925972,268.644531 89.979622,258.286316 89.953049,247.465668 
	C89.925766,236.644806 89.978691,226.286362 89.951622,215.465424 
	C89.924881,204.977982 89.978134,194.953018 89.951797,184.465500 
	C89.925056,173.644745 89.977913,163.286560 89.951485,152.465775 
	C89.924805,142.644730 89.977425,133.286270 90.033691,123.002762 
	C90.037346,113.042419 90.037346,104.007111 90.037346,95.059853 
	C80.203377,95.059853 71.101067,95.059853 61.998760,95.059853 
	C58.216171,95.059853 54.433586,95.059853 49.872482,95.059853 
	C49.872482,90.708992 49.872482,86.814873 49.788918,82.462509 
	C49.761227,73.645470 49.817101,65.286659 49.789459,56.466141 
	C49.819168,54.203674 49.932384,52.402920 50.087421,49.937103 
	C55.034641,49.937103 60.051868,49.937103 65.531998,49.868408 
	C73.021584,49.900661 80.048286,50.001614 87.536964,50.018181 
z"/>
<path fill="#E20F26" opacity="1.000000" stroke="none" 
	d="
M62.035820,95.400360 
	C71.101067,95.059853 80.203377,95.059853 90.037346,95.059853 
	C90.037346,104.007111 90.037346,113.042419 89.954498,122.540176 
	C89.391594,122.888359 88.748787,122.934479 88.455109,122.636505 
	C79.639839,113.692177 70.859077,104.713852 62.035820,95.400360 
z"/>
<path fill="#BCBCBC" opacity="1.000000" stroke="none" 
	d="
M150.216187,93.361359 
	C150.137817,79.587540 150.059448,65.813713 149.966766,51.579544 
	C151.684143,51.043213 153.415817,50.967232 155.574432,50.971481 
	C156.001617,64.688110 156.001892,78.324516 155.598450,92.513962 
	C153.535217,93.165123 151.875702,93.263245 150.216187,93.361359 
z"/>
<path fill="#C6C6C6" opacity="1.000000" stroke="none" 
	d="
M267.582520,440.216949 
	C267.101440,425.298309 267.021637,410.352875 267.210480,394.800446 
	C267.651825,394.086212 267.824463,393.978912 268.361145,393.886292 
	C270.778656,393.150452 272.832062,392.399933 274.918030,392.139069 
	C274.971832,408.064880 274.993134,423.501007 275.014465,438.937134 
	C272.670929,439.354797 270.327362,439.772461 267.582520,440.216949 
z"/>
<path fill="#D8D8D8" opacity="1.000000" stroke="none" 
	d="
M285.007874,437.004028 
	C283.590088,437.374756 282.172272,437.745453 280.378662,437.607727 
	C280.001892,423.447815 280.045288,409.796051 279.956543,396.145142 
	C279.941681,393.860687 279.353668,391.579926 279.266785,389.056274 
	C280.941559,387.752930 282.380035,386.690735 283.994019,386.036499 
	C284.446320,388.383209 284.954224,390.320953 284.963257,392.260986 
	C285.032654,407.175049 285.005249,422.089630 285.007874,437.004028 
z"/>
<path fill="#CFCECE" opacity="1.000000" stroke="none" 
	d="
M279.030487,389.297455 
	C279.353668,391.579926 279.941681,393.860687 279.956543,396.145142 
	C280.045288,409.796051 280.001892,423.447815 280.007141,437.570740 
	C278.590851,438.371979 277.170258,438.701721 275.382080,438.984314 
	C274.993134,423.501007 274.971832,408.064880 275.116760,391.914185 
	C276.532166,390.565582 277.781311,389.931519 279.030487,389.297455 
z"/>
<path fill="#DFDEDE" opacity="1.000000" stroke="none" 
	d="
M285.406860,437.031982 
	C285.005249,422.089630 285.032654,407.175049 284.963257,392.260986 
	C284.954224,390.320953 284.446320,388.383209 284.044556,385.713257 
	C285.288788,383.657135 286.657928,382.332123 288.258667,380.970581 
	C288.490265,380.934021 288.952393,380.854736 288.968384,381.332245 
	C288.989990,397.234772 288.950409,412.660095 289.045166,428.084564 
	C289.061188,430.692749 289.655792,433.297333 289.765503,436.080383 
	C289.451019,436.416931 289.354034,436.576691 289.257080,436.736481 
	C289.257080,436.736481 289.120972,436.718109 289.052765,436.710632 
	C287.924988,436.822083 286.865387,436.940979 285.406860,437.031982 
z"/>
<path fill="#F4F4F4" opacity="1.000000" stroke="none" 
	d="
M303.017822,360.000336 
	C303.677734,361.899750 304.899109,363.795471 304.911621,365.699158 
	C305.053131,387.197693 305.009277,408.697449 305.027832,430.675598 
	C303.295227,431.844788 301.549957,432.535248 299.419495,432.786682 
	C298.990723,410.828033 298.947144,389.308411 298.960632,367.445953 
	C299.838867,365.448029 300.659973,363.792999 301.671021,361.946899 
	C302.246613,361.170685 302.632202,360.585510 303.017822,360.000336 
z"/>
<path fill="#E7E5E6" opacity="1.000000" stroke="none" 
	d="
M289.983063,435.903595 
	C289.655792,433.297333 289.061188,430.692749 289.045166,428.084564 
	C288.950409,412.660095 288.989990,397.234772 289.093506,381.033264 
	C290.795898,378.486084 292.389221,376.715424 293.998962,375.371155 
	C294.343231,378.749908 294.934540,381.700439 294.954224,384.654846 
	C295.051880,399.309692 294.953369,413.965912 295.055756,428.620728 
	C295.068726,430.472168 295.857849,432.318207 296.287354,434.166748 
	C295.044342,434.652985 293.801331,435.139191 291.943817,435.781250 
	C290.880554,435.925934 290.431824,435.914764 289.983063,435.903595 
z"/>
<path fill="#EAEAEA" opacity="1.000000" stroke="none" 
	d="
M296.591766,434.178345 
	C295.857849,432.318207 295.068726,430.472168 295.055756,428.620728 
	C294.953369,413.965912 295.051880,399.309692 294.954224,384.654846 
	C294.934540,381.700439 294.343231,378.749908 294.090820,375.047363 
	C295.745270,372.127686 297.324402,369.958252 298.903534,367.788818 
	C298.947144,389.308411 298.990723,410.828033 299.059814,432.838348 
	C298.355621,433.616028 297.625916,433.903015 296.591766,434.178345 
z"/>
<path fill="#C60409" opacity="1.000000" stroke="none" 
	d="
M289.765503,436.080383 
	C290.431824,435.914764 290.880554,435.925934 291.665192,435.976807 
	C291.340790,436.299805 290.680511,436.583008 289.638672,436.801361 
	C289.354034,436.576691 289.451019,436.416931 289.765503,436.080383 
z"/>
<path fill="#FE1C43" opacity="1.000000" stroke="none" 
	d="
M206.000336,90.958710 
	C223.962433,90.065735 241.900696,90.027100 259.424500,94.746384 
	C278.711761,99.940575 290.498688,112.714531 294.721161,132.070847 
	C298.118500,147.644714 298.452911,163.367508 293.809998,179.099167 
	C291.675415,178.212921 289.983337,177.418091 288.737244,176.175858 
	C262.368927,149.888535 236.027756,123.573799 209.777603,97.168648 
	C208.116791,95.498032 207.241211,93.046791 206.000336,90.958710 
z"/>
<path fill="#DC0D20" opacity="1.000000" stroke="none" 
	d="
M303.048065,359.628448 
	C302.632202,360.585510 302.246613,361.170685 301.258057,361.915100 
	C296.610870,363.780609 294.044586,361.770874 291.326233,358.937225 
	C283.770477,351.061005 275.995300,343.391815 268.174866,335.776276 
	C266.868774,334.504395 264.902069,333.910950 263.178528,332.550293 
	C263.072052,330.270660 263.030121,328.444611 262.982788,326.618713 
	C262.757019,317.911163 259.948883,314.437042 251.302811,312.547363 
	C247.908508,311.805481 244.434998,311.426025 240.958374,310.544739 
	C239.788910,308.814667 238.770142,307.310394 237.511032,306.045319 
	C225.372681,293.849335 213.155975,281.730927 201.078247,269.475464 
	C199.687592,268.064362 199.006821,265.953613 197.996902,264.167267 
	C206.354568,264.119354 214.712250,264.071472 223.539612,264.450287 
	C225.190094,266.601868 226.136108,268.560547 227.586624,270.016754 
	C252.349335,294.876678 277.170258,319.678680 301.998047,344.473724 
	C303.279572,345.753571 304.737244,346.856995 306.112915,348.042572 
	C305.101410,351.780579 304.089874,355.518555 303.048065,359.628448 
z"/>
<path fill="#F9193E" opacity="1.000000" stroke="none" 
	d="
M205.536987,90.883858 
	C207.241211,93.046791 208.116791,95.498032 209.777603,97.168648 
	C236.027756,123.573799 262.368927,149.888535 288.737244,176.175858 
	C289.983337,177.418091 291.675415,178.212921 293.571716,179.365723 
	C292.428131,183.827881 290.872620,188.140427 288.718414,192.721115 
	C286.517090,191.930038 284.690582,191.098022 283.347778,189.775040 
	C274.018616,180.583435 264.814636,171.264877 255.499527,162.058823 
	C254.258270,160.832108 252.617203,160.009918 251.092377,158.538956 
	C250.996201,154.776138 251.069077,151.470245 250.920731,148.174316 
	C250.614441,141.369171 248.830643,138.832108 242.059067,138.087616 
	C233.421448,137.137970 224.687576,137.063934 215.986389,136.271378 
	C214.873169,134.341583 213.973251,132.550369 212.632141,131.196045 
	C201.270706,119.722588 189.806915,108.350533 178.440201,96.882256 
	C177.087860,95.517830 176.133759,93.758682 174.995056,92.182503 
	C175.165405,92.122910 175.335754,92.063309 175.758865,91.906708 
	C177.484573,91.800270 178.957535,91.790848 180.774246,91.659790 
	C182.808655,91.460846 184.499298,91.383537 186.593826,91.174637 
	C193.023010,90.965027 199.048309,90.887016 205.536987,90.883858 
z"/>
<path fill="#E00F24" opacity="1.000000" stroke="none" 
	d="
M306.465759,347.908752 
	C304.737244,346.856995 303.279572,345.753571 301.998047,344.473724 
	C277.170258,319.678680 252.349335,294.876678 227.586624,270.016754 
	C226.136108,268.560547 225.190094,266.601868 224.003082,264.522552 
	C229.696259,264.393127 235.395660,264.618195 241.584656,265.297180 
	C242.615997,266.566132 243.038910,267.499817 243.716736,268.179108 
	C264.263580,288.768951 284.824249,309.345062 305.437897,329.867950 
	C306.427338,330.853027 307.918488,331.334229 309.175995,332.050079 
	C308.390198,337.291718 307.604401,342.533325 306.465759,347.908752 
z"/>
<path fill="#D70A1A" opacity="1.000000" stroke="none" 
	d="
M197.543884,264.095703 
	C199.006821,265.953613 199.687592,268.064362 201.078247,269.475464 
	C213.155975,281.730927 225.372681,293.849335 237.511032,306.045319 
	C238.770142,307.310394 239.788910,308.814667 240.512222,310.603912 
	C230.736450,310.647980 221.367630,310.296112 211.962524,309.603271 
	C210.806793,307.864105 209.805283,306.348663 208.549530,305.086060 
	C197.121948,293.595917 185.599640,282.199371 174.243607,270.639313 
	C172.470200,268.834076 171.395050,266.342896 170.249298,264.085175 
	C170.669693,263.945587 170.837814,263.889740 171.419373,263.903076 
	C173.225388,263.926605 174.617996,263.880920 176.423889,263.902588 
	C178.228348,263.923370 179.619492,263.876801 181.435074,263.900146 
	C183.576279,263.924835 185.293045,263.879547 187.009827,263.834290 
	C190.370178,263.897583 193.730515,263.960846 197.543884,264.095703 
z"/>
<path fill="#EB132F" opacity="1.000000" stroke="none" 
	d="
M150.131317,134.002319 
	C150.082535,129.641586 150.033752,125.280861 150.397461,120.501007 
	C152.209015,121.223656 153.716095,122.256859 154.990250,123.524231 
	C166.084335,134.559464 177.075363,145.699234 188.254196,156.647476 
	C190.440002,158.788223 193.305847,160.234604 195.934540,162.457794 
	C196.011047,166.466782 196.011047,170.019226 196.011047,174.058167 
	C200.481689,174.058167 204.240555,174.058167 208.003998,174.419800 
	C209.051636,176.400131 209.851410,178.259216 211.175980,179.599731 
	C222.291199,190.848755 233.527496,201.978119 244.652786,213.217285 
	C245.995407,214.573685 246.894669,216.368942 247.999405,217.960800 
	C243.936340,218.552017 239.873276,219.143234 235.395966,219.320908 
	C233.991470,217.441971 233.206940,215.771515 231.980667,214.541412 
	C206.188675,188.669357 180.356201,162.837585 154.485641,137.044083 
	C153.250793,135.812912 151.592438,135.006516 150.131317,134.002319 
z"/>
<path fill="#E8122C" opacity="1.000000" stroke="none" 
	d="
M150.052612,134.461090 
	C151.592438,135.006516 153.250793,135.812912 154.485641,137.044083 
	C180.356201,162.837585 206.188675,188.669357 231.980667,214.541412 
	C233.206940,215.771515 233.991470,217.441971 234.992157,219.245392 
	C230.973801,219.715561 226.944977,219.847702 222.416107,219.573578 
	C221.240158,218.241104 220.672928,217.206406 219.872482,216.404526 
	C197.867035,194.359436 175.846848,172.329041 153.783340,150.342102 
	C152.780594,149.342834 151.351318,148.771561 150.120697,148.000946 
	C150.071777,143.640594 150.022842,139.280228 150.052612,134.461090 
z"/>
<path fill="#E7112B" opacity="1.000000" stroke="none" 
	d="
M150.039383,148.462357 
	C151.351318,148.771561 152.780594,149.342834 153.783340,150.342102 
	C175.846848,172.329041 197.867035,194.359436 219.872482,216.404526 
	C220.672928,217.206406 221.240158,218.241104 221.957596,219.500580 
	C216.640198,219.883438 211.281281,219.933029 205.418930,219.574738 
	C204.474365,218.477829 204.140961,217.681305 203.576401,217.115372 
	C186.881668,200.379639 170.174515,183.656235 153.420334,166.980087 
	C152.536316,166.100189 151.223053,165.651520 150.109619,165.002090 
	C150.059097,159.642654 150.008575,154.283203 150.039383,148.462357 
z"/>
<path fill="#E20F26" opacity="1.000000" stroke="none" 
	d="
M150.027313,165.464325 
	C151.223053,165.651520 152.536316,166.100189 153.420334,166.980087 
	C170.174515,183.656235 186.881668,200.379639 203.576401,217.115372 
	C204.140961,217.681305 204.474365,218.477829 204.956436,219.500198 
	C199.310364,219.898438 193.623383,219.963348 187.045349,220.022888 
	C184.418045,219.959564 182.681747,219.901596 180.920258,219.509140 
	C171.111206,209.226562 161.332367,199.273544 151.519562,189.354111 
	C151.225632,189.056976 150.576294,189.111389 150.092667,189.001907 
	C150.043442,181.310120 149.994217,173.618347 150.027313,165.464325 
z"/>
<path fill="#E20F26" opacity="1.000000" stroke="none" 
	d="
M309.338745,331.738342 
	C307.918488,331.334229 306.427338,330.853027 305.437897,329.867950 
	C284.824249,309.345062 264.263580,288.768951 243.716736,268.179108 
	C243.038910,267.499817 242.615997,266.566132 242.036987,265.411407 
	C249.072464,266.064972 256.145233,267.058197 263.654175,268.514526 
	C265.068756,270.493256 265.818970,272.234863 267.061005,273.489532 
	C278.744171,285.291595 290.477112,297.045258 302.307709,308.699188 
	C303.479614,309.853577 305.396393,310.251862 306.967438,311.001068 
	C307.812134,317.809570 308.656830,324.618073 309.338745,331.738342 
z"/>
<path fill="#F31637" opacity="1.000000" stroke="none" 
	d="
M279.059631,205.150375 
	C273.967896,208.128174 268.876160,211.105972 263.370667,213.746414 
	C261.852966,211.987671 260.882111,210.434311 259.623932,209.165909 
	C250.125656,199.590317 240.504517,190.135391 231.092896,180.476013 
	C229.326599,178.663223 228.326965,176.103439 227.340332,173.713226 
	C234.471466,172.701828 241.235855,171.865555 248.035706,171.371948 
	C249.195633,173.124237 250.201950,174.650940 251.463776,175.924484 
	C259.551697,184.087448 267.732117,192.159073 275.785278,200.355865 
	C277.120300,201.714722 277.980194,203.540421 279.059631,205.150375 
z"/>
<path fill="#EE1432" opacity="1.000000" stroke="none" 
	d="
M226.973557,173.888367 
	C228.326965,176.103439 229.326599,178.663223 231.092896,180.476013 
	C240.504517,190.135391 250.125656,199.590317 259.623932,209.165909 
	C260.882111,210.434311 261.852966,211.987671 262.995789,213.761169 
	C258.296295,215.423859 253.557938,216.734421 248.409485,218.002899 
	C246.894669,216.368942 245.995407,214.573685 244.652786,213.217285 
	C233.527496,201.978119 222.291199,190.848755 211.175980,179.599731 
	C209.851410,178.259216 209.051636,176.400131 208.464355,174.326599 
	C214.937912,173.877304 220.955734,173.882843 226.973557,173.888367 
z"/>
<path fill="#F8193D" opacity="1.000000" stroke="none" 
	d="
M279.384033,205.031174 
	C277.980194,203.540421 277.120300,201.714722 275.785278,200.355865 
	C267.732117,192.159073 259.551697,184.087448 251.463776,175.924484 
	C250.201950,174.650940 249.195633,173.124237 248.276459,171.093811 
	C249.374939,166.648804 250.268112,162.824600 251.161285,159.000397 
	C252.617203,160.009918 254.258270,160.832108 255.499527,162.058823 
	C264.814636,171.264877 274.018616,180.583435 283.347778,189.775040 
	C284.690582,191.098022 286.517090,191.930038 288.473389,192.994324 
	C285.787476,196.970261 282.747955,200.941116 279.384033,205.031174 
z"/>
<path fill="#E8122C" opacity="1.000000" stroke="none" 
	d="
M307.006042,310.603302 
	C305.396393,310.251862 303.479614,309.853577 302.307709,308.699188 
	C290.477112,297.045258 278.744171,285.291595 267.061005,273.489532 
	C265.818970,272.234863 265.068756,270.493256 264.040405,268.647095 
	C286.652740,273.737488 301.757416,286.926270 307.006042,310.603302 
z"/>
<path fill="#F4F4F4" opacity="1.000000" stroke="none" 
	d="
M180.945465,219.843628 
	C182.681747,219.901596 184.418045,219.959564 186.582779,220.092865 
	C187.008682,234.418289 187.006134,248.668365 187.006714,263.376373 
	C185.293045,263.879547 183.576279,263.924835 181.432068,263.442566 
	C181.023911,248.665375 181.043198,234.415726 181.036255,220.084351 
	C181.010040,220.002655 180.945465,219.843643 180.945465,219.843628 
z"/>
<path fill="#F31637" opacity="1.000000" stroke="none" 
	d="
M174.597839,92.124710 
	C176.133759,93.758682 177.087860,95.517830 178.440201,96.882256 
	C189.806915,108.350533 201.270706,119.722588 212.632141,131.196045 
	C213.973251,132.550369 214.873169,134.341583 215.526077,136.362305 
	C208.851868,136.794357 202.629181,136.794357 196.375992,136.794357 
	C196.153732,139.090393 196.012772,140.546555 195.514496,141.996948 
	C193.552551,140.941833 191.715164,140.127762 190.379669,138.806412 
	C178.492416,127.044960 166.715363,115.172150 154.839569,103.399010 
	C153.485657,102.056786 151.724640,101.125206 150.152390,100.003220 
	C150.124008,98.058273 150.095612,96.113319 150.141708,93.764862 
	C151.875702,93.263245 153.535217,93.165123 155.600616,92.975311 
	C157.403290,92.884453 158.800095,92.885277 160.603607,92.780930 
	C162.478516,92.636040 163.946716,92.596329 165.725449,92.369354 
	C167.421204,92.168793 168.806427,92.155495 170.596008,92.040688 
	C172.067123,91.981758 173.133881,92.024338 174.597839,92.124710 
z"/>
<path fill="#C60409" opacity="1.000000" stroke="none" 
	d="
M149.929703,338.997437 
	C149.872452,328.303375 149.815186,317.609314 150.213318,306.490479 
	C152.075745,307.173828 153.608719,308.155273 154.870209,309.409729 
	C166.728745,321.202026 178.504745,333.077667 190.414047,344.818176 
	C191.835266,346.219238 193.909515,346.957886 195.768021,348.405945 
	C195.221848,352.419708 197.991943,351.808319 200.039398,352.488953 
	C201.387604,354.720734 202.448914,356.851318 204.038116,358.460571 
	C215.510696,370.078217 227.113190,381.567566 238.604843,393.166595 
	C239.952881,394.527222 240.876923,396.307953 241.997513,397.893921 
	C231.256592,398.080048 220.515656,398.266144 209.385651,397.931732 
	C208.119171,395.895569 207.516434,394.107239 206.323029,392.905396 
	C189.268799,375.730438 172.161850,358.607422 154.964890,341.575592 
	C153.687927,340.310913 151.626465,339.838287 149.929703,338.997437 
z"/>
<path fill="#BF0102" opacity="1.000000" stroke="none" 
	d="
M149.813721,339.454041 
	C151.626465,339.838287 153.687927,340.310913 154.964890,341.575592 
	C172.161850,358.607422 189.268799,375.730438 206.323029,392.905396 
	C207.516434,394.107239 208.119171,395.895569 209.000977,397.787659 
	C193.466812,397.295959 177.923462,396.502472 162.392868,395.509277 
	C158.287582,395.246735 154.221680,394.368530 149.697739,393.708862 
	C149.697739,375.686432 149.697739,357.798553 149.813721,339.454041 
z"/>
<path fill="#D10915" opacity="1.000000" stroke="none" 
	d="
M169.997025,264.168884 
	C171.395050,266.342896 172.470200,268.834076 174.243607,270.639313 
	C185.599640,282.199371 197.121948,293.595917 208.549530,305.086060 
	C209.805283,306.348663 210.806793,307.864105 211.503143,309.695923 
	C206.152573,310.129578 201.225082,310.129578 195.681168,310.129578 
	C195.681168,313.787354 195.681168,316.896515 195.335541,320.000488 
	C193.403656,318.907166 191.608597,318.029846 190.263824,316.697906 
	C178.387131,304.934387 166.614044,293.066315 154.737457,281.302734 
	C153.391495,279.969574 151.596191,279.090149 150.009247,278.000305 
	C149.944534,273.640228 149.879822,269.280151 150.338531,264.456116 
	C152.577637,263.938843 154.293320,263.885529 156.422409,263.898285 
	C158.226822,263.920654 159.617844,263.876953 161.422058,263.901062 
	C163.226562,263.924103 164.617859,263.879333 166.403961,263.904358 
	C167.864853,264.039032 168.930939,264.103943 169.997025,264.168884 
z"/>
<path fill="#CB060E" opacity="1.000000" stroke="none" 
	d="
M242.443329,397.969238 
	C240.876923,396.307953 239.952881,394.527222 238.604843,393.166595 
	C227.113190,381.567566 215.510696,370.078217 204.038116,358.460571 
	C202.448914,356.851318 201.387604,354.720734 200.503784,352.419250 
	C210.614548,352.133423 220.303482,352.259827 230.045929,352.712830 
	C231.435608,354.895508 232.555801,356.964722 234.143021,358.573059 
	C244.371918,368.938202 254.725983,379.179749 264.969940,389.530182 
	C266.192780,390.765747 266.998169,392.414459 267.997070,393.871643 
	C267.824463,393.978912 267.651825,394.086212 267.227570,394.365723 
	C258.947021,395.706818 250.918091,396.875702 242.443329,397.969238 
z"/>
<path fill="#CB060E" opacity="1.000000" stroke="none" 
	d="
M149.907837,278.459534 
	C151.596191,279.090149 153.391495,279.969574 154.737457,281.302734 
	C166.614044,293.066315 178.387131,304.934387 190.263824,316.697906 
	C191.608597,318.029846 193.403656,318.907166 195.421692,320.461670 
	C195.796005,329.953247 195.738541,338.978424 195.681091,348.003601 
	C193.909515,346.957886 191.835266,346.219238 190.414047,344.818176 
	C178.504745,333.077667 166.728745,321.202026 154.870209,309.409729 
	C153.608719,308.155273 152.075745,307.173828 150.322464,306.032654 
	C149.919601,296.972626 149.863007,287.945679 149.907837,278.459534 
z"/>
<path fill="#EE1432" opacity="1.000000" stroke="none" 
	d="
M150.078445,100.466293 
	C151.724640,101.125206 153.485657,102.056786 154.839569,103.399010 
	C166.715363,115.172150 178.492416,127.044960 190.379669,138.806412 
	C191.715164,140.127762 193.552551,140.941833 195.592041,142.459579 
	C195.970596,149.285736 195.914322,155.643494 195.858047,162.001236 
	C193.305847,160.234604 190.440002,158.788223 188.254196,156.647476 
	C177.075363,145.699234 166.084335,134.559464 154.990250,123.524231 
	C153.716095,122.256859 152.209015,121.223656 150.474899,120.042053 
	C150.094742,113.644615 150.049622,107.286987 150.078445,100.466293 
z"/>
<path fill="#DD0D20" opacity="1.000000" stroke="none" 
	d="
M150.006592,189.463593 
	C150.576294,189.111389 151.225632,189.056976 151.519562,189.354111 
	C161.332367,199.273544 171.111206,209.226562 180.920258,219.509155 
	C180.945465,219.843643 181.010040,220.002655 180.619904,220.008209 
	C178.822891,220.063019 177.416016,220.112274 175.596802,220.086136 
	C173.791229,220.061386 172.398010,220.112030 170.592804,220.089447 
	C168.790848,220.066605 167.400833,220.117004 165.598450,220.094650 
	C163.794296,220.070892 162.402512,220.119904 160.598145,220.097748 
	C158.794083,220.074265 157.402588,220.121933 155.588318,220.098969 
	C153.451187,220.007538 151.736862,219.986755 150.022522,219.965973 
	C149.988525,209.952408 149.954529,199.938843 150.006592,189.463593 
z"/>
<path fill="#BCBCBC" opacity="1.000000" stroke="none" 
	d="
M149.986023,220.435699 
	C151.736862,219.986755 153.451187,220.007538 155.584625,220.556152 
	C156.005463,235.333389 156.007233,249.582794 156.009003,263.832214 
	C154.293320,263.885529 152.577637,263.938843 150.432129,263.999908 
	C149.984726,249.640274 149.967133,235.272842 149.986023,220.435699 
z"/>
<path fill="#D00A16" opacity="1.000000" stroke="none" 
	d="
M268.361145,393.886292 
	C266.998169,392.414459 266.192780,390.765747 264.969940,389.530182 
	C254.725983,379.179749 244.371918,368.938202 234.143021,358.573059 
	C232.555801,356.964722 231.435608,354.895508 230.504303,352.613831 
	C238.606232,351.460236 246.303329,350.732208 254.190857,350.273315 
	C255.774994,351.715607 257.259094,352.797668 258.547607,354.076782 
	C266.582458,362.052948 274.514343,370.134094 282.634979,378.021301 
	C284.057312,379.402740 286.211121,380.031006 288.027100,381.007141 
	C286.657928,382.332123 285.288788,383.657135 283.869080,385.305328 
	C282.380035,386.690735 280.941559,387.752930 279.266785,389.056274 
	C277.781311,389.931519 276.532166,390.565582 275.084229,391.424561 
	C272.832062,392.399933 270.778656,393.150452 268.361145,393.886292 
z"/>
<path fill="#D70B1A" opacity="1.000000" stroke="none" 
	d="
M288.258667,380.970581 
	C286.211121,380.031006 284.057312,379.402740 282.634979,378.021301 
	C274.514343,370.134094 266.582458,362.052948 258.547607,354.076782 
	C257.259094,352.797668 255.774994,351.715607 254.360809,349.983032 
	C259.814697,345.309692 262.221069,339.532715 263.240631,333.003998 
	C264.902069,333.910950 266.868774,334.504395 268.174866,335.776276 
	C275.995300,343.391815 283.770477,351.061005 291.326233,358.937225 
	C294.044586,361.770874 296.610870,363.780609 301.068085,362.106140 
	C300.659973,363.792999 299.838867,365.448029 298.960632,367.445953 
	C297.324402,369.958252 295.745270,372.127686 294.074341,374.620941 
	C292.389221,376.715424 290.795898,378.486084 289.077515,380.555756 
	C288.952393,380.854736 288.490265,380.934021 288.258667,380.970581 
z"/>
<path fill="#FFFDFD" opacity="1.000000" stroke="none" 
	d="
M263.178528,332.550293 
	C262.221069,339.532715 259.814697,345.309692 254.170349,349.713928 
	C246.303329,350.732208 238.606232,351.460236 230.450775,352.287262 
	C220.303482,352.259827 210.614548,352.133423 200.461243,352.076721 
	C197.991943,351.808319 195.221848,352.419708 195.768005,348.405975 
	C195.738541,338.978424 195.796005,329.953247 195.767319,320.466858 
	C195.681168,316.896515 195.681168,313.787354 195.681168,310.129578 
	C201.225082,310.129578 206.152573,310.129578 211.539429,310.036926 
	C221.367630,310.296112 230.736450,310.647980 240.551422,310.940674 
	C244.434998,311.426025 247.908508,311.805481 251.302811,312.547363 
	C259.948883,314.437042 262.757019,317.911163 262.982788,326.618713 
	C263.030121,328.444611 263.072052,330.270660 263.178528,332.550293 
z"/>
<path fill="#FFFDFD" opacity="1.000000" stroke="none" 
	d="
M195.934540,162.457794 
	C195.914322,155.643494 195.970596,149.285736 195.949341,142.465363 
	C196.012772,140.546555 196.153732,139.090393 196.375992,136.794357 
	C202.629181,136.794357 208.851868,136.794357 215.534882,136.703430 
	C224.687576,137.063934 233.421448,137.137970 242.059067,138.087616 
	C248.830643,138.832108 250.614441,141.369171 250.920731,148.174316 
	C251.069077,151.470245 250.996201,154.776138 251.092377,158.538956 
	C250.268112,162.824600 249.374939,166.648804 248.240997,170.751160 
	C241.235855,171.865555 234.471466,172.701828 227.340332,173.713226 
	C220.955734,173.882843 214.937912,173.877304 208.459747,173.964966 
	C204.240555,174.058167 200.481689,174.058167 196.011047,174.058167 
	C196.011047,170.019226 196.011047,166.466782 195.934540,162.457794 
z"/>
<path fill="#D8D8D8" opacity="1.000000" stroke="none" 
	d="
M166.010834,220.167419 
	C167.400833,220.117004 168.790848,220.066605 170.590927,220.547348 
	C171.002655,235.330276 171.004303,249.582077 171.005951,263.833862 
	C170.837814,263.889740 170.669693,263.945587 170.249298,264.085175 
	C168.930939,264.103943 167.864853,264.039032 166.401138,263.446625 
	C166.005951,248.668564 166.008392,234.417984 166.010834,220.167419 
z"/>
<path fill="#DFDEDE" opacity="1.000000" stroke="none" 
	d="
M171.419373,263.903076 
	C171.004303,249.582077 171.002655,235.330276 171.002899,220.620575 
	C172.398010,220.112030 173.791229,220.061386 175.593246,220.544159 
	C176.004883,235.330139 176.007736,249.582703 176.010590,263.835266 
	C174.617996,263.880920 173.225388,263.926605 171.419373,263.903076 
z"/>
<path fill="#EAEAEA" opacity="1.000000" stroke="none" 
	d="
M176.423889,263.902588 
	C176.007736,249.582703 176.004883,235.330139 176.005585,220.619553 
	C177.416016,220.112274 178.822891,220.063019 180.646118,220.089920 
	C181.043198,234.415726 181.023911,248.665375 181.007629,263.372620 
	C179.619492,263.876801 178.228348,263.923370 176.423889,263.902588 
z"/>
<path fill="#CFCECE" opacity="1.000000" stroke="none" 
	d="
M165.598450,220.094666 
	C166.008392,234.417984 166.005951,248.668564 166.006317,263.376862 
	C164.617859,263.879333 163.226562,263.924103 161.419312,263.443512 
	C161.005814,248.668396 161.008270,234.418655 161.010727,220.168900 
	C162.402512,220.119904 163.794296,220.070892 165.598450,220.094666 
z"/>
<path fill="#C6C6C6" opacity="1.000000" stroke="none" 
	d="
M160.598145,220.097748 
	C161.008270,234.418655 161.005814,248.668396 161.006104,263.375732 
	C159.617844,263.876953 158.226822,263.920654 156.422409,263.898285 
	C156.007233,249.582794 156.005463,235.333389 156.007401,220.626801 
	C157.402588,220.121933 158.794083,220.074265 160.598145,220.097748 
z"/>
</svg>